<?xml version="1.0" encoding="UTF-8" standalone="no"?>
<!DOCTYPE svg PUBLIC "-//W3C//DTD SVG 1.1//EN"
 "http://www.w3.org/Graphics/SVG/1.1/DTD/svg11.dtd">
<!-- Generated by graphviz version 12.2.1 (20241206.2353)
 -->
<!-- Pages: 1 -->
<svg width="294pt" height="45pt"
 viewBox="0.00 0.00 293.50 45.00" xmlns="http://www.w3.org/2000/svg" xmlns:xlink="http://www.w3.org/1999/xlink">
<g id="graph0" class="graph" transform="scale(1 1) rotate(0) translate(4 41)">
<polygon fill="white" stroke="none" points="-4,4 -4,-41 289.5,-41 289.5,4 -4,4"/>
<!-- 2675100942208 -->
<g id="node1" class="node">
<title>2675100942208</title>
<polygon fill="none" stroke="black" points="205.75,-0.5 205.75,-36.5 285.5,-36.5 285.5,-0.5 205.75,-0.5"/>
<text text-anchor="middle" x="245.62" y="-13.7" font-family="Times New Roman,serif" font-size="14.00">data 2.0000</text>
</g>
<!-- 2675100942208+ -->
<g id="node2" class="node">
<title>2675100942208+</title>
<ellipse fill="none" stroke="black" cx="142.75" cy="-18.5" rx="27" ry="18"/>
<text text-anchor="middle" x="142.75" y="-13.45" font-family="Times New Roman,serif" font-size="14.00">+</text>
</g>
<!-- 2675100942208+&#45;&gt;2675100942208 -->
<g id="edge1" class="edge">
<title>2675100942208+&#45;&gt;2675100942208</title>
<path fill="none" stroke="black" d="M169.99,-18.5C177.46,-18.5 185.85,-18.5 194.24,-18.5"/>
<polygon fill="black" stroke="black" points="194.08,-22 204.08,-18.5 194.08,-15 194.08,-22"/>
</g>
<!-- 2675100939808 -->
<g id="node3" class="node">
<title>2675100939808</title>
<polygon fill="none" stroke="black" points="0,-0.5 0,-36.5 79.75,-36.5 79.75,-0.5 0,-0.5"/>
<text text-anchor="middle" x="39.88" y="-13.7" font-family="Times New Roman,serif" font-size="14.00">data 1.0000</text>
</g>
<!-- 2675100939808&#45;&gt;2675100942208+ -->
<g id="edge2" class="edge">
<title>2675100939808&#45;&gt;2675100942208+</title>
<path fill="none" stroke="black" d="M80.16,-18.5C88.03,-18.5 96.27,-18.5 104.07,-18.5"/>
<polygon fill="black" stroke="black" points="103.97,-22 113.97,-18.5 103.97,-15 103.97,-22"/>
</g>
</g>
</svg>
